<svg xmlns="http://www.w3.org/2000/svg" viewBox="0 0 512 512" width="512" height="512">
  <!-- Rounded Corner Card (Matching Previous Brand Style rx=140) -->
  <rect width="512" height="512" rx="140" fill="#162420"/>
  
  <!-- Solid Unbroken Whole Tooth Path traced from favicon_io.zip -->
  <path fill="#CEF149" d="M 187 103 L 177 106 L 170 109 L 165 112 L 161 115 L 158 118 L 155 121 L 152 124 L 150 127 L 148 130 L 146 133 L 144 136 L 142 139 L 141 142 L 140 145 L 139 148 L 137 151 L 137 154 L 136 157 L 135 160 L 134 163 L 134 166 L 133 169 L 133 172 L 132 175 L 132 178 L 132 181 L 132 184 L 132 187 L 131 190 L 132 193 L 132 196 L 132 199 L 132 202 L 132 205 L 133 208 L 133 211 L 134 214 L 134 217 L 135 220 L 135 223 L 136 226 L 137 229 L 137 232 L 138 235 L 139 238 L 140 241 L 141 244 L 142 247 L 143 250 L 144 253 L 145 256 L 146 259 L 147 262 L 147 265 L 148 268 L 149 271 L 150 274 L 151 277 L 151 280 L 152 283 L 152 286 L 152 289 L 153 292 L 153 295 L 153 298 L 154 301 L 154 304 L 154 307 L 154 310 L 155 313 L 155 316 L 155 319 L 156 322 L 156 325 L 156 328 L 157 331 L 157 334 L 158 337 L 158 340 L 159 343 L 160 346 L 160 349 L 161 352 L 162 355 L 163 358 L 164 361 L 165 364 L 166 367 L 167 370 L 168 373 L 169 376 L 171 379 L 172 382 L 174 385 L 176 388 L 178 391 L 180 394 L 182 397 L 185 400 L 188 403 L 192 406 L 199 409 L 206 408 L 210 405 L 212 402 L 214 399 L 215 396 L 216 393 L 217 390 L 218 387 L 219 384 L 219 381 L 220 378 L 221 375 L 221 372 L 222 369 L 222 366 L 223 363 L 223 360 L 224 357 L 225 354 L 225 351 L 226 348 L 227 345 L 227 342 L 228 339 L 229 336 L 230 333 L 231 330 L 233 327 L 234 324 L 235 321 L 237 318 L 239 315 L 242 312 L 245 309 L 250 306 L 261 306 L 266 309 L 269 312 L 272 315 L 274 318 L 276 321 L 277 324 L 278 327 L 280 330 L 281 333 L 282 336 L 283 339 L 284 342 L 284 345 L 285 348 L 286 351 L 287 354 L 287 357 L 288 360 L 288 363 L 289 366 L 289 369 L 290 372 L 290 375 L 291 378 L 292 381 L 292 384 L 293 387 L 294 390 L 295 393 L 296 396 L 297 399 L 299 402 L 301 405 L 304 408 L 312 409 L 319 406 L 323 403 L 326 400 L 329 397 L 331 394 L 333 391 L 335 388 L 337 385 L 339 382 L 340 379 L 342 376 L 343 373 L 344 370 L 345 367 L 346 364 L 347 361 L 348 358 L 349 355 L 350 352 L 351 349 L 351 346 L 352 343 L 353 340 L 353 337 L 354 334 L 354 331 L 355 328 L 355 325 L 355 322 L 356 319 L 356 316 L 356 313 L 357 310 L 357 307 L 357 304 L 357 301 L 358 298 L 358 295 L 358 292 L 359 289 L 359 286 L 359 283 L 360 280 L 360 277 L 361 274 L 362 271 L 363 268 L 364 265 L 365 262 L 366 259 L 366 256 L 367 253 L 368 250 L 369 247 L 370 244 L 371 241 L 372 238 L 373 235 L 374 232 L 374 229 L 375 226 L 376 223 L 376 220 L 377 217 L 377 214 L 378 211 L 378 208 L 379 205 L 379 202 L 379 199 L 379 196 L 379 193 L 379 190 L 379 187 L 379 184 L 379 181 L 379 178 L 379 175 L 378 172 L 378 169 L 377 166 L 377 163 L 376 160 L 375 157 L 374 154 L 373 151 L 372 148 L 371 145 L 370 142 L 369 139 L 367 136 L 365 133 L 363 130 L 361 127 L 359 124 L 356 121 L 353 118 L 350 115 L 346 112 L 341 109 L 334 106 L 324 103 Z" />
</svg>